<svg width="19" height="15" viewBox="0 0 19 15" fill="none"
    xmlns="http://www.w3.org/2000/svg">
    <g id="Icon-BJ">
        <rect id="Icon-BJ-Backgroup" x="2" width="15" height="15" rx="1" fill="#C4C4C4"/>
        <path id="Icon-BJ-BJ" d="M5.34 2.5L5.316 1.84C5.316 1.784 5.332 1.756 5.364 1.756C5.372 1.756 5.384 1.776 5.4 1.816C5.448 2.096 5.472 2.36 5.472 2.608C5.472 2.856 5.472 3.032 5.472 3.136C5.728 3.12 5.888 3.112 5.952 3.112C6.368 3.112 6.872 3.176 7.464 3.304C7.912 2.88 8.384 2.668 8.88 2.668C9.152 2.668 9.384 2.768 9.576 2.968C9.776 3.16 9.876 3.4 9.876 3.688C9.876 3.792 9.856 3.844 9.816 3.844C9.8 3.844 9.772 3.736 9.732 3.52C9.684 3.184 9.44 3.016 9 3.016C8.68 3.016 8.348 3.16 8.004 3.448C8.468 3.592 8.872 3.796 9.216 4.06C9.632 4.396 9.84 4.772 9.84 5.188C9.84 5.7 9.544 6.108 8.952 6.412C8.504 6.644 7.988 6.776 7.404 6.808C8.972 7.536 9.756 8.4 9.756 9.4C9.756 9.872 9.56 10.264 9.168 10.576C8.776 10.896 8.34 11.056 7.86 11.056C7.116 11.056 6.468 10.968 5.916 10.792L4.116 10.048C3.692 10.56 3.288 10.896 2.904 11.056C2.528 11.24 2 11.332 1.32 11.332C1.024 11.332 0.74 11.232 0.468 11.032C0.164 10.824 0.012 10.56 0.012 10.24C0.012 9.92 0.176 9.676 0.504 9.508C0.832 9.34 1.208 9.256 1.632 9.256C2.056 9.256 2.544 9.34 3.096 9.508C3.704 8.812 4.22 7.84 4.644 6.592C4.996 5.512 5.216 4.424 5.304 3.328C3.864 3.432 2.756 3.884 1.98 4.684C1.676 5.012 1.524 5.36 1.524 5.728C1.524 6.336 1.86 6.78 2.532 7.06C2.62 7.108 2.732 7.148 2.868 7.18C3.004 7.204 3.072 7.228 3.072 7.252C3.072 7.292 3.048 7.312 3 7.312L2.964 7.3C2.5 7.268 2.052 7.068 1.62 6.7C1.188 6.332 0.972 5.92 0.972 5.464C0.972 5.12 1.112 4.808 1.392 4.528C2.224 3.672 3.532 3.208 5.316 3.136C5.332 2.848 5.34 2.636 5.34 2.5ZM9.312 9.772C9.312 8.828 8.676 8.052 7.404 7.444L6.72 7.156C6.704 7.14 6.696 7.1 6.696 7.036C6.696 6.828 6.804 6.7 7.02 6.652H7.248C7.352 6.652 7.484 6.636 7.644 6.604C8.092 6.516 8.46 6.364 8.748 6.148C9.092 5.868 9.264 5.536 9.264 5.152C9.264 4.768 9.128 4.444 8.856 4.18C8.592 3.916 8.26 3.716 7.86 3.58C7.38 4.012 6.94 4.648 6.54 5.488C6.3 6 5.96 6.748 5.52 7.732C5.08 8.708 4.656 9.428 4.248 9.892C4.976 10.164 5.604 10.384 6.132 10.552C6.66 10.728 7.208 10.816 7.776 10.816C8.8 10.816 9.312 10.468 9.312 9.772ZM7.332 3.448C6.852 3.352 6.44 3.304 6.096 3.304C5.76 3.304 5.548 3.308 5.46 3.316C5.396 4.428 5.192 5.528 4.848 6.616C4.432 7.88 3.92 8.868 3.312 9.58L3.768 9.736C4.08 9.4 4.416 8.848 4.776 8.08C5.136 7.304 5.524 6.476 5.94 5.596C6.404 4.652 6.868 3.936 7.332 3.448ZM1.452 10.624C1.3 10.624 1.224 10.596 1.224 10.54C1.224 10.5 1.292 10.48 1.428 10.48C1.956 10.48 2.484 10.196 3.012 9.628C2.508 9.452 2.06 9.364 1.668 9.364C1.276 9.364 0.936 9.428 0.648 9.556C0.36 9.676 0.216 9.876 0.216 10.156C0.216 10.436 0.348 10.66 0.612 10.828C0.844 10.988 1.132 11.068 1.476 11.068C1.828 11.068 2.228 10.948 2.676 10.708C3.132 10.476 3.464 10.204 3.672 9.892L3.216 9.688C2.664 10.312 2.076 10.624 1.452 10.624ZM12.6631 8.968L13.0471 8.932C13.0791 8.932 13.0951 8.94 13.0951 8.956C13.0951 9.036 12.8591 9.076 12.3871 9.076C11.9231 9.076 11.5111 8.948 11.1511 8.692C10.7191 8.396 10.5031 7.984 10.5031 7.456C10.5031 5.704 12.0151 4.42 15.0391 3.604C15.0791 3.22 15.0991 2.808 15.0991 2.368C15.0991 2.32 15.1231 2.292 15.1711 2.284C15.2191 2.292 15.2431 2.436 15.2431 2.716C15.2431 2.988 15.2351 3.268 15.2191 3.556L16.2271 3.316C16.4191 2.844 16.6231 2.516 16.8391 2.332C17.0631 2.148 17.4191 2.056 17.9071 2.056C18.1151 2.056 18.3151 2.1 18.5071 2.188C18.7311 2.316 18.8431 2.472 18.8431 2.656C18.8431 2.896 18.6511 3.056 18.2671 3.136C17.8911 3.208 17.4431 3.284 16.9231 3.364C16.2991 5.364 15.9391 6.508 15.8431 6.796C14.8991 9.628 13.5191 11.516 11.7031 12.46C11.3351 12.66 10.9231 12.76 10.4671 12.76C10.0191 12.76 9.55909 12.568 9.08709 12.184C8.60709 11.8 8.36709 11.372 8.36709 10.9C8.36709 10.844 8.38309 10.816 8.41509 10.816C8.42309 10.816 8.43909 10.848 8.46309 10.912C8.47909 10.976 8.53509 11.12 8.63109 11.344C8.94309 11.976 9.50709 12.292 10.3231 12.292C10.8031 12.292 11.2791 12.172 11.7511 11.932C12.7271 11.428 13.5031 10.672 14.0791 9.664C14.4391 9.016 14.8311 7.988 15.2551 6.58C15.4631 5.86 15.7631 4.836 16.1551 3.508L15.1951 3.748C15.0591 5.116 14.7031 6.52 14.1271 7.96C13.4551 9.64 12.6551 10.808 11.7271 11.464C11.3031 11.752 10.9431 11.896 10.6471 11.896C10.5751 11.896 10.5391 11.872 10.5391 11.824C10.5391 11.776 10.5711 11.744 10.6351 11.728C11.5871 11.6 12.4791 10.76 13.3111 9.208C14.2311 7.504 14.8031 5.7 15.0271 3.796C12.2991 4.612 10.9351 5.832 10.9351 7.456C10.9351 7.928 11.0991 8.3 11.4271 8.572C11.7631 8.836 12.1751 8.968 12.6631 8.968ZM18.7471 2.596C18.7471 2.324 18.5311 2.188 18.0991 2.188C17.7391 2.188 17.3831 2.52 17.0311 3.184C17.2631 3.16 17.7351 3.072 18.4471 2.92C18.6471 2.84 18.7471 2.732 18.7471 2.596Z" fill="black"/>
    </g>
</svg>
